<svg width="24" height="24" viewBox="0 0 24 24" fill="none" xmlns="http://www.w3.org/2000/svg">
<g clip-path="url(#clip0_87_5499)">
<path d="M12 21C16.9706 21 21 16.9706 21 12C21 7.02944 16.9706 3 12 3C7.02944 3 3 7.02944 3 12C3 16.9706 7.02944 21 12 21Z" stroke="#6D6C6C" stroke-width="1.5" stroke-linecap="round" stroke-linejoin="round"/>
<path d="M12 15.75C14.0711 15.75 15.75 14.0711 15.75 12C15.75 9.92893 14.0711 8.25 12 8.25C9.92893 8.25 8.25 9.92893 8.25 12C8.25 14.0711 9.92893 15.75 12 15.75Z" stroke="#6D6C6C" stroke-width="1.5" stroke-linecap="round" stroke-linejoin="round"/>
<path d="M12 8.25H20.1834" stroke="#6D6C6C" stroke-width="1.5" stroke-linecap="round" stroke-linejoin="round"/>
<path d="M15.2484 13.875L11.1562 20.9625" stroke="#6D6C6C" stroke-width="1.5" stroke-linecap="round" stroke-linejoin="round"/>
<path d="M8.75234 13.8746L4.66016 6.78711" stroke="#6D6C6C" stroke-width="1.5" stroke-linecap="round" stroke-linejoin="round"/>
</g>
<defs>
<clipPath id="clip0_87_5499">
<rect width="24" height="24" fill="white"/>
</clipPath>
</defs>
</svg>
