<svg width="24" height="24" viewBox="0 0 24 24" fill="none" xmlns="http://www.w3.org/2000/svg">
<g clip-path="url(#clip0_204_4453)">
<path d="M3.75 18C5.40685 18 6.75 16.6569 6.75 15C6.75 13.3431 5.40685 12 3.75 12C2.09315 12 0.75 13.3431 0.75 15C0.75 16.6569 2.09315 18 3.75 18Z" stroke="#27201C" stroke-width="2" stroke-linecap="round" stroke-linejoin="round"/>
<path d="M20.25 18C21.9069 18 23.25 16.6569 23.25 15C23.25 13.3431 21.9069 12 20.25 12C18.5931 12 17.25 13.3431 17.25 15C17.25 16.6569 18.5931 18 20.25 18Z" stroke="#27201C" stroke-width="2" stroke-linecap="round" stroke-linejoin="round"/>
<path d="M13.5 5.25H16.5L20.25 15" stroke="#27201C" stroke-width="2" stroke-linecap="round" stroke-linejoin="round"/>
<path d="M1.5 7.5C1.5 7.5 5.93531 9.21937 8.3025 10.2947C8.68428 10.4702 9.10759 10.5353 9.52447 10.4826C9.94135 10.4299 10.3351 10.2616 10.6613 9.99656C11.4038 9.38344 12.6 9 14.25 9H20.25C18.9403 8.99962 17.6665 9.42779 16.6229 10.2191C15.5793 11.0105 14.8233 12.1216 14.4703 13.3828C14.336 13.8504 14.0527 14.2613 13.6635 14.5532C13.2744 14.8451 12.8005 15.002 12.3141 15H3.75" stroke="#27201C" stroke-width="2" stroke-linecap="round" stroke-linejoin="round"/>
</g>
<defs>
<clipPath id="clip0_204_4453">
<rect width="24" height="24" fill="white"/>
</clipPath>
</defs>
</svg>
