<svg width="12" height="12" viewBox="0 0 12 12" fill="none" xmlns="http://www.w3.org/2000/svg">
<path d="M4.5 5.375V8.875" stroke="white" stroke-width="0.875" stroke-linecap="round" stroke-linejoin="round"/>
<path d="M10.625 2.75H1" stroke="white" stroke-width="0.875" stroke-linecap="round" stroke-linejoin="round"/>
<path d="M7.125 5.375V8.875" stroke="white" stroke-width="0.875" stroke-linecap="round" stroke-linejoin="round"/>
<path d="M9.75 2.75V11.0625C9.75 11.1785 9.70391 11.2898 9.62186 11.3719C9.53981 11.4539 9.42853 11.5 9.3125 11.5H2.3125C2.19647 11.5 2.08519 11.4539 2.00314 11.3719C1.92109 11.2898 1.875 11.1785 1.875 11.0625V2.75" stroke="white" stroke-width="0.875" stroke-linecap="round" stroke-linejoin="round"/>
<path d="M8 2.75V1.875C8 1.64294 7.90781 1.42038 7.74372 1.25628C7.57962 1.09219 7.35706 1 7.125 1H4.5C4.26794 1 4.04538 1.09219 3.88128 1.25628C3.71719 1.42038 3.625 1.64294 3.625 1.875V2.75" stroke="white" stroke-width="0.875" stroke-linecap="round" stroke-linejoin="round"/>
</svg>
