<svg width="14" height="14" viewBox="0 0 14 14" fill="none" xmlns="http://www.w3.org/2000/svg">
<path d="M1.9375 5.875C1.9375 6.39208 2.03935 6.9041 2.23722 7.38182C2.4351 7.85954 2.72514 8.2936 3.09077 8.65923C3.4564 9.02486 3.89046 9.3149 4.36818 9.51278C4.8459 9.71065 5.35792 9.8125 5.875 9.8125C6.39208 9.8125 6.9041 9.71065 7.38182 9.51278C7.85954 9.3149 8.2936 9.02486 8.65923 8.65923C9.02486 8.2936 9.3149 7.85954 9.51278 7.38182C9.71065 6.9041 9.8125 6.39208 9.8125 5.875C9.8125 5.35792 9.71065 4.8459 9.51278 4.36818C9.3149 3.89046 9.02486 3.4564 8.65923 3.09077C8.2936 2.72514 7.85954 2.4351 7.38182 2.23722C6.9041 2.03935 6.39208 1.9375 5.875 1.9375C5.35792 1.9375 4.8459 2.03935 4.36818 2.23722C3.89046 2.4351 3.4564 2.72514 3.09077 3.09077C2.72514 3.4564 2.4351 3.89046 2.23722 4.36818C2.03935 4.8459 1.9375 5.35792 1.9375 5.875Z" stroke="#27201C" stroke-width="0.8" stroke-linecap="round" stroke-linejoin="round"/>
<path d="M12.0625 12.0625L8.6875 8.6875" stroke="#27201C" stroke-width="0.8" stroke-linecap="round" stroke-linejoin="round"/>
</svg>
